<svg xmlns="http://www.w3.org/2000/svg" width="500" height="100" viewBox="0 0 500 100">
  <style>
    .signature {
      fill: none;
      stroke: #4A00E0;
      stroke-width: 2.5;
      stroke-linecap: round;
      stroke-linejoin: round;
    }
    
    @keyframes sign {
      0% {
        stroke-dashoffset: 1000;
      }
      100% {
        stroke-dashoffset: 0;
      }
    }
    
    .animate {
      stroke-dasharray: 1000;
      animation: sign 3s ease forwards;
    }
  </style>

  <!-- Path for "Afaaf Hariri" signature -->
  <!-- Replace `d=""` with the path data generated for "Afaaf Hariri" -->
  <path class="signature animate" d="M 50,50 C 50,50 60,30 70,50 C 80,70 90,30 100,50 M 120,30 L 120,70 M 140,30 L 140,70 M 130,50 L 150,50 M 170,30 L 170,70 M 170,30 C 190,30 190,50 170,50 C 190,50 190,70 170,70 M 210,30 L 210,70 M 200,30 L 220,30 M 240,30 L 240,70 M 230,50 L 250,50 M 280,30 L 270,70 M 290,30 L 280,70 M 310,30 L 310,70 M 300,30 L 320,30 M 340,30 L 340,70 M 340,30 C 360,30 360,50 340,50 C 360,50 360,70 340,70 M 380,30 L 380,70 M 370,30 L 390,30 M 410,30 L 410,70 M 410,30 C 430,30 430,50 410,50 C 430,50 430,70 410,70 M 450,30 L 450,70 M 440,50 L 460,50"/>
</svg>
